
<svg width="427" height="53" viewBox="0 0 427 53" fill="none" xmlns="http://www.w3.org/2000/svg">
<path d="M13.608 49.032C17.856 51.336 22.68 52.416 28.008 52.416C33.336 52.416 38.088 51.336 42.336 49.032C46.584 46.8 49.896 43.704 52.344 39.672C54.792 35.712 56.016 31.248 56.016 26.208C56.016 21.24 54.792 16.776 52.344 12.744C49.896 8.784 46.584 5.688 42.336 3.384C38.088 1.152 33.336 0 28.008 0C22.68 0 17.856 1.152 13.608 3.384C9.36 5.688 6.04801 8.784 3.60001 12.744C1.15201 16.776 0 21.24 0 26.208C0 31.248 1.15201 35.712 3.60001 39.672C6.04801 43.704 9.36 46.8 13.608 49.032V49.032ZM34.92 38.808C32.832 40.032 30.528 40.608 28.008 40.608C25.416 40.608 23.112 40.032 21.096 38.808C19.008 37.656 17.352 35.928 16.2 33.768C14.976 31.608 14.4 29.088 14.4 26.208C14.4 23.4 14.976 20.88 16.2 18.72C17.352 16.56 19.008 14.832 21.096 13.608C23.112 12.456 25.416 11.808 28.008 11.808C30.528 11.808 32.832 12.456 34.92 13.608C36.936 14.832 38.592 16.56 39.816 18.72C40.968 20.88 41.616 23.4 41.616 26.208C41.616 29.088 40.968 31.608 39.816 33.768C38.592 35.928 36.936 37.656 34.92 38.808V38.808Z" fill="#ECC30B"/>
<path d="M68.4824 51.4081H82.4504V42.9121L68.4824 25.1281V51.4081ZM102.466 1.00806V10.1521L116.434 27.0001V1.00806H102.466ZM102.466 27.8641L80.2184 1.00806H68.4824V7.70406L82.4504 24.5521L104.698 51.4081H116.434V45.5761L102.466 27.7921V27.8641Z" fill="#ECC30B"/>
<path d="M171.521 1.00806H131.561V12.0241H171.521V1.00806ZM171.521 20.5201H131.561V31.1761H171.521V20.5201ZM131.561 40.3921V51.4081H171.521V40.3921H131.561Z" fill="#ECC30B"/>
<path d="M253.841 1.00806H239.585V19.9441H220.145V1.00806H205.889V51.4081H220.145V31.7521H239.585V51.4081H253.841V1.00806Z" fill="#ECC30B"/>
<path d="M279.983 49.032C284.231 51.336 289.055 52.416 294.383 52.416C299.711 52.416 304.463 51.336 308.711 49.032C312.959 46.8 316.271 43.704 318.719 39.672C321.167 35.712 322.391 31.248 322.391 26.208C322.391 21.24 321.167 16.776 318.719 12.744C316.271 8.784 312.959 5.688 308.711 3.384C304.463 1.152 299.711 0 294.383 0C289.055 0 284.231 1.152 279.983 3.384C275.735 5.688 272.423 8.784 269.975 12.744C267.527 16.776 266.375 21.24 266.375 26.208C266.375 31.248 267.527 35.712 269.975 39.672C272.423 43.704 275.735 46.8 279.983 49.032V49.032ZM301.295 38.808C299.207 40.032 296.903 40.608 294.383 40.608C291.791 40.608 289.487 40.032 287.471 38.808C285.383 37.656 283.727 35.928 282.575 33.768C281.351 31.608 280.775 29.088 280.775 26.208C280.775 23.4 281.351 20.88 282.575 18.72C283.727 16.56 285.383 14.832 287.471 13.608C289.487 12.456 291.791 11.808 294.383 11.808C296.903 11.808 299.207 12.456 301.295 13.608C303.311 14.832 304.967 16.56 306.191 18.72C307.343 20.88 307.991 23.4 307.991 26.208C307.991 29.088 307.343 31.608 306.191 33.768C304.967 35.928 303.311 37.656 301.295 38.808V38.808Z" fill="#ECC30B"/>
<path d="M340.69 50.904C344.506 51.912 348.466 52.416 352.57 52.416C357.322 52.416 361.426 51.696 364.81 50.256C368.122 48.816 370.642 46.8 372.37 44.352C374.026 41.904 374.89 39.168 374.89 36.144C374.89 32.688 373.954 29.88 372.082 27.864C370.21 25.848 368.05 24.336 365.53 23.4C363.01 22.464 359.842 21.6 356.026 20.736C352.57 20.016 350.122 19.368 348.61 18.648C347.026 18 346.306 16.992 346.306 15.624C346.306 14.328 346.954 13.248 348.25 12.384C349.546 11.52 351.562 11.088 354.442 11.088C358.906 11.088 363.586 12.384 368.41 14.976L372.802 4.392C370.354 2.952 367.474 1.872 364.306 1.152C361.066 0.432 357.826 0 354.514 0C349.618 0 345.514 0.72 342.202 2.16C338.89 3.6 336.37 5.616 334.714 8.064C332.986 10.512 332.194 13.32 332.194 16.344C332.194 19.872 333.058 22.68 334.93 24.696C336.73 26.784 338.89 28.296 341.482 29.232C344.002 30.168 347.17 31.032 350.986 31.824C354.442 32.616 356.89 33.336 358.474 34.056C360.058 34.776 360.85 35.784 360.85 37.224C360.85 39.96 358.114 41.328 352.642 41.328C349.762 41.328 346.81 40.896 343.858 39.96C340.834 39.096 338.242 37.872 336.01 36.36L331.33 46.872C333.706 48.6 336.802 49.896 340.69 50.904V50.904Z" fill="#ECC30B"/>
<path d="M396.429 12.3121V51.4081H410.685V12.3121H426.093V1.00806H380.949V12.3121H396.429Z" fill="#ECC30B"/>
</svg>
